<svg width="339" height="218" viewBox="0 0 339 218" fill="none" xmlns="http://www.w3.org/2000/svg">
<path fill-rule="evenodd" clip-rule="evenodd" d="M109 109V133H140.5H172V109V85H140.5H109V109Z" fill="#F45C2C"/>
<path fill-rule="evenodd" clip-rule="evenodd" d="M79.9998 2.94801C42.7268 10.871 13.8508 39.406 3.24981 78.794C0.879811 87.601 0.632819 90.26 0.582819 107.5C0.534819 123.917 0.827796 127.684 2.7348 135.207C7.8838 155.52 15.8658 170.443 29.0028 184.322C50.3338 206.856 76.4178 217.044 112.809 217.055C138.047 217.062 151.002 214.64 165.25 207.252L172 203.752V173.876C172 157.444 171.644 144 171.208 144C170.773 144 168.41 146.072 165.958 148.604C153.141 161.841 138.83 168.119 121.525 168.096C100.144 168.067 84.7788 159.919 73.0548 142.391C65.6068 131.255 63.4748 123.497 63.6038 108C63.6928 97.323 64.1008 94.297 66.3968 87.251C72.9278 67.217 86.9438 55.432 109 51.431C114.114 50.503 125.329 50.059 144.25 50.035L172 50V25.5V1.00002L130.25 1.07001C93.9708 1.13201 87.3858 1.37701 79.9998 2.94801ZM180 25.323V49.855L218.75 50.256C261.795 50.701 262.846 50.846 269.186 57.186C275.043 63.043 275.55 71.816 270.385 77.954C265.662 83.567 262.006 84 219.318 84H181V108.5V133H214.962C246.723 133 249.279 133.133 254.389 135.044C263.876 138.594 270.351 146.915 272.875 158.799C273.547 161.964 274 174.761 274 190.565V217.031L302.75 216.765L331.5 216.5L331.339 185.5C331.166 151.969 330.244 143.534 325.676 133.656C322.988 127.842 315.288 119.737 306.778 113.765L301.055 109.749L309.666 104.625C330.589 92.172 338.509 78.232 338.429 54C338.381 39.493 336.182 33.994 326.595 24.4C318.536 16.335 310.107 11.739 295.791 7.60401C278.701 2.66801 268.811 1.81201 222.75 1.28201L180 0.791016V25.323Z" fill="#FCFCFC"/>
</svg>
