<svg width="16" height="18" viewBox="0 0 16 18" fill="none" xmlns="http://www.w3.org/2000/svg">
<path d="M16 3C16 3.55 15.55 4 15 4H14V5C14 5.55 13.55 6 13 6C12.45 6 12 5.55 12 5V4H11C10.45 4 10 3.55 10 3C10 2.45 10.45 2 11 2H12V1C12 0.45 12.45 0 13 0C13.55 0 14 0.45 14 1V2H15C15.55 2 16 2.45 16 3ZM14 16.48C14 17.2 13.27 17.68 12.61 17.4L7 15L1.39 17.4C1.2381 17.466 1.07213 17.493 0.907159 17.4785C0.742187 17.464 0.583442 17.4086 0.445345 17.3172C0.307249 17.2258 0.194177 17.1013 0.116402 16.9551C0.0386265 16.8089 -0.00138668 16.6456 -3.46599e-06 16.48V2C-3.46599e-06 0.9 0.899996 0 2 0H9C8.39223 0.811622 8.04548 1.78879 8.0057 2.80196C7.96592 3.81514 8.235 4.81648 8.77726 5.67325C9.31952 6.53003 10.1094 7.20177 11.0421 7.59944C11.9748 7.99711 13.0063 8.10193 14 7.9V16.48Z" fill="#EE5B28"/>
</svg>
